<svg xmlns="http://www.w3.org/2000/svg" id="Capa_1" width="512" height="512">
  <defs/>
  <path fill="#50758d" d="M360 28v167H8V32C8 16 16 8 28 8h312c11 0 20 8 20 20zM360 195v248c0 11-9 20-20 20H28c-12 0-20-9-20-16V195z"/>
  <path fill="#2edffc" d="M58 141V62c0-8 6-14 14-14h244c7 0 14 6 14 14v79c0 7-7 14-14 14H72c-8 0-14-7-14-14z"/>
  <path fill="#27bdf3" d="M92 155H72c-8 0-14-7-14-14V62c0-8 6-14 14-14h20c-8 0-14 6-14 14v79c0 7 6 14 14 14z"/>
  <path fill="#f5f5f5" d="M329 249v80H193v-94h122c7 0 14 6 14 14zM193 235v94H58v-78c0-10 6-16 14-16zM193 329v94H72c-8 0-14-7-14-12v-82zM329 329v80c0 7-7 14-14 14H193v-94z"/>
  <path fill="#e6e6e6" d="M315 227H72c-13 0-22 10-22 24v160c0 10 10 19 22 19h243c11 0 21-10 21-21V249c0-12-10-22-21-22zm6 22v72H201v-79h114c3 0 6 3 6 7zm-256 2c0-6 3-9 7-9h114v79H65zm0 160v-75h121v79H72c-4 0-7-3-7-4zm256-2c0 3-3 6-6 6H201v-79h120z"/>
  <g fill="#2b597f">
    <path d="M158 383h-54a7 7 0 110-15h54a7 7 0 110 15zM153 274h-15v-14a7 7 0 10-15 0v14h-14a7 7 0 100 15h14v15a7 7 0 1015 0v-15h15a7 7 0 100-15zM267 282l10-11a8 8 0 00-11-10l-10 10-10-10a8 8 0 00-11 10l10 10-10 11a8 8 0 1011 10l10-10 10 10a7 7 0 0011 0c3-3 3-7 0-10zM291 133h-14c-10 0-18-8-18-17V87c0-10 8-18 18-18h14c9 0 17 8 17 18v29c0 9-8 17-17 17zm-14-49c-2 0-3 1-3 3v29c0 1 1 2 3 2h14l2-2V87c0-2-1-3-2-3z"/>
    <path d="M360 195v-23H43c-6 0-10-4-10-10V32c0-16 8-24 20-24H28C16 8 8 16 8 32v415c0 7 8 16 20 16h25c-12 0-20-9-20-16V205c0-6 4-10 10-10z"/>
  </g>
  <ellipse cx="401.5" cy="292.5" fill="#fad207" rx="103" ry="23"/>
  <path fill="#fad207" d="M505 434v48c0 15-47 23-103 23s-103-8-103-23v-48c0 15 46 23 103 23s103-8 103-23z"/>
  <path fill="#faa515" d="M505 387v47c0 15-47 23-103 23s-103-8-103-23v-47c0 15 46 23 103 23s103-8 103-23z"/>
  <path fill="#fad207" d="M505 340v47c0 15-47 23-103 23s-103-8-103-23v-47c0 15 46 23 103 23s103-8 103-23z"/>
  <path fill="#faa515" d="M505 293v47c0 15-47 23-103 23s-103-8-103-23v-47c0 15 46 23 103 23s103-8 103-23z"/>
  <path fill="#2b597f" d="M239 400a7 7 0 01-5-13l34-34a8 8 0 0110 11l-34 34-5 2z"/>
  <circle cx="241.5" cy="356.5" r="7.5" fill="#2b597f"/>
  <circle cx="271.5" cy="394.5" r="7.5" fill="#2b597f"/>
  <g>
    <path d="M476 268a383 383 0 00-109-5V27c0-15-12-27-27-27H28C12 0 0 13 0 31v416c0 10 12 23 28 23h263v12c0 16 27 22 36 24 19 4 45 6 75 6s55-2 74-6c9-2 36-8 36-24V293c0-17-27-23-36-25zm21 119s-3 6-27 10a384 384 0 01-138 0c-23-4-26-10-26-10v-29l21 6c19 4 45 6 75 6s55-2 74-6l21-6zm-304 1c-4 1-7 4-7 8v19H72c-4 0-7-3-7-4v-75h121v25a7 7 0 1015 0v-25h90v79h-90v-19c0-4-4-7-8-7zm128-119c-11 3-30 10-30 23v29h-90v-79h114c3 0 6 3 6 7zm-135 52H65v-70c0-6 3-9 7-9h114zm311 19s-3 6-27 10c-17 3-41 5-68 5s-52-2-69-5c-24-5-27-10-27-10v-29l21 6c19 4 45 6 75 6s55-2 74-6l21-6zm-27-58c23 5 27 10 27 10 0 1-4 6-27 11-17 3-41 5-68 5s-52-2-69-5c-23-5-27-10-27-10 0-1 4-6 27-11 17-3 41-5 69-5s51 2 68 5zM28 455c-8 0-13-6-13-8V202h247a7 7 0 100-15H15V32c0-11 5-17 13-17h312c6 0 12 6 12 13v159h-55a7 7 0 100 15h55v62l-16 2v-17c0-12-10-22-21-22H72c-13 0-22 10-22 24v160c0 10 10 19 22 19h219v25zm442 37c-17 3-41 5-68 5s-52-2-69-5c-24-5-27-10-27-10v-30c8 4 17 6 21 7a383 383 0 00115 4 7 7 0 00-1-15 502 502 0 01-108-3c-24-5-27-11-27-11v-29a383 383 0 0096 12c29 0 55-2 74-6 4 0 13-2 21-6v29c0 1-3 5-23 10a8 8 0 003 14c5-1 13-2 20-6v29c0 1-3 6-27 11z"/>
    <path d="M337 141V62c0-12-10-22-21-22H150a7 7 0 100 15h166c3 0 6 3 6 7v79c0 3-3 6-6 6H72c-4 0-7-3-7-6V62c0-4 3-7 7-7h43a7 7 0 100-15H72c-12 0-22 10-22 22v79c0 11 10 21 22 21h244c11 0 21-10 21-21zM158 368h-54a7 7 0 100 15h54a7 7 0 100-15zM109 289h14v15a7 7 0 1015 0v-15h15a7 7 0 100-15h-15v-14a7 7 0 10-15 0v14h-14a7 7 0 100 15zM277 261c-3-3-8-3-11 0l-10 10-10-10a8 8 0 00-11 10l10 10-10 11a8 8 0 0011 10l10-10 10 10a8 8 0 0011-10l-10-11 10-10c3-3 3-7 0-10zM239 400l5-2 34-34a8 8 0 00-10-11l-34 34a8 8 0 005 13z"/>
    <circle cx="241.5" cy="356.5" r="7.5"/>
    <circle cx="271.5" cy="394.5" r="7.5"/>
    <path d="M291 133c9 0 17-8 17-17V87c0-10-8-18-17-18h-14c-10 0-18 8-18 18v29c0 9 8 17 18 17zm-17-17V87c0-2 1-3 3-3h14c1 0 2 1 2 3v29l-2 2h-14c-2 0-3-1-3-2z"/>
  </g>
</svg>